<svg width="36" height="43" viewBox="0 0 36 43" fill="none" xmlns="http://www.w3.org/2000/svg">
<path d="M5.61308 10.3042L4.94215 0.25L5.61308 10.3042ZM0.25 5.61308L10.3052 4.94215L0.25 5.61308ZM2.66769 8.26123L7.88754 2.294L2.66769 8.26123ZM2.294 2.66769L8.26123 7.88754L2.294 2.66769ZM12.3212 24.9869V21.9177L9.55354 17.5895L6.78585 21.9188V29.902L3.82754 25.6051L1.44538 29.902V42.25H14.4331V39.0214C14.4206 38.4801 14.5165 37.9417 14.715 37.438C14.9135 36.9342 15.2108 36.4752 15.5892 36.088C15.9677 35.7007 16.4197 35.393 16.9187 35.1829C17.4178 34.9728 17.9538 34.8646 18.4952 34.8646C19.0367 34.8646 19.5727 34.9728 20.0717 35.1829C20.5708 35.393 21.0228 35.7007 21.4013 36.088C21.7797 36.4752 22.0769 36.9342 22.2755 37.438C22.474 37.9417 22.5699 38.4801 22.5574 39.0214V42.25H35.5451V29.902L33.9125 25.9098L32.156 29.902L30.4351 27.1171L28.7142 29.902V24.9158L27.2237 17.3946L25.2185 25.1474V12.5862L22.9483 7.74323L20.676 12.5862V22.2203" fill="#F6EFE6"/>
<path d="M5.61308 10.3042L4.94215 0.25M0.25 5.61308L10.3052 4.94215M2.66769 8.26123L7.88754 2.294M2.294 2.66769L8.26123 7.88754M12.3212 24.9869V21.9177L9.55354 17.5895L6.78585 21.9188V29.902L3.82754 25.6051L1.44538 29.902V42.25H14.4331V39.0214C14.4206 38.4801 14.5165 37.9417 14.715 37.438C14.9135 36.9342 15.2108 36.4752 15.5892 36.088C15.9677 35.7007 16.4197 35.393 16.9187 35.1829C17.4178 34.9728 17.9538 34.8646 18.4952 34.8646C19.0367 34.8646 19.5727 34.9728 20.0717 35.1829C20.5708 35.393 21.0228 35.7007 21.4013 36.088C21.7797 36.4752 22.0769 36.9342 22.2755 37.438C22.474 37.9417 22.5699 38.4801 22.5574 39.0214V42.25H35.5451V29.902L33.9125 25.9098L32.156 29.902L30.4351 27.1171L28.7142 29.902V24.9158L27.2237 17.3946L25.2185 25.1474V12.5862L22.9483 7.74323L20.676 12.5862V22.2203" stroke="#F6EFE6" stroke-width="0.5" stroke-linecap="round" stroke-linejoin="round"/>
</svg>
