<svg width="41" height="37" viewBox="0 0 41 37" fill="none" xmlns="http://www.w3.org/2000/svg">
<path d="M20.5 6.83333C20.5 6.83333 20.5 6.83333 22.2311 4.55556C24.2356 1.91333 27.1967 0 30.75 0C36.4217 0 41 4.57833 41 10.25C41 12.3683 40.3622 14.3272 39.2689 15.9444C37.4239 18.7006 20.5 36.4444 20.5 36.4444C20.5 36.4444 3.57611 18.7006 1.73111 15.9444C0.637778 14.3272 0 12.3683 0 10.25C0 4.57833 4.57833 0 10.25 0C13.8033 0 16.7872 1.91333 18.7689 4.55556C20.5 6.83333 20.5 6.83333 20.5 6.83333Z" fill="#F6EFE6"/>
</svg>
