<svg width="41" height="41" viewBox="0 0 41 41" fill="none" xmlns="http://www.w3.org/2000/svg">
<path d="M24.9895 24.9895L8.2 32.8L16.0105 16.0105L32.8 8.2M20.5 0C17.8079 0 15.1422 0.530248 12.655 1.56047C10.1678 2.59069 7.90791 4.10071 6.00431 6.00431C2.15982 9.84881 0 15.0631 0 20.5C0 25.9369 2.15982 31.1512 6.00431 34.9957C7.90791 36.8993 10.1678 38.4093 12.655 39.4395C15.1422 40.4698 17.8079 41 20.5 41C25.9369 41 31.1512 38.8402 34.9957 34.9957C38.8402 31.1512 41 25.9369 41 20.5C41 17.8079 40.4698 15.1422 39.4395 12.655C38.4093 10.1678 36.8993 7.90791 34.9957 6.00431C33.0921 4.10071 30.8322 2.59069 28.345 1.56047C25.8578 0.530248 23.1921 0 20.5 0ZM20.5 18.245C19.9019 18.245 19.3284 18.4826 18.9055 18.9055C18.4826 19.3284 18.245 19.9019 18.245 20.5C18.245 21.0981 18.4826 21.6716 18.9055 22.0945C19.3284 22.5174 19.9019 22.755 20.5 22.755C21.0981 22.755 21.6716 22.5174 22.0945 22.0945C22.5174 21.6716 22.755 21.0981 22.755 20.5C22.755 19.9019 22.5174 19.3284 22.0945 18.9055C21.6716 18.4826 21.0981 18.245 20.5 18.245Z" fill="#F6EFE6"/>
</svg>
