<svg width="41" height="41" viewBox="0 0 41 41" fill="none" xmlns="http://www.w3.org/2000/svg">
<path d="M20.5 0C23.2185 0 25.8256 1.07991 27.7478 3.00216C29.6701 4.9244 30.75 7.53153 30.75 10.25C30.75 12.9685 29.6701 15.5756 27.7478 17.4978C25.8256 19.4201 23.2185 20.5 20.5 20.5C17.7815 20.5 15.1744 19.4201 13.2522 17.4978C11.3299 15.5756 10.25 12.9685 10.25 10.25C10.25 7.53153 11.3299 4.9244 13.2522 3.00216C15.1744 1.07991 17.7815 0 20.5 0ZM20.5 25.625C31.8263 25.625 41 30.2119 41 35.875V41H0V35.875C0 30.2119 9.17375 25.625 20.5 25.625Z" fill="#F6EFE6"/>
</svg>
