<svg width="28" height="32" viewBox="0 0 28 32" fill="none" xmlns="http://www.w3.org/2000/svg">
<path d="M8.69201 3.50047C8.23096 3.50047 7.78879 3.68464 7.46277 4.01247C7.13676 4.3403 6.95361 4.78494 6.95361 5.24856C6.95361 5.71218 7.13676 6.15682 7.46277 6.48465C7.78879 6.81248 8.23096 6.99665 8.69201 6.99665C9.15306 6.99665 9.59523 6.81248 9.92125 6.48465C10.2473 6.15682 10.4304 5.71218 10.4304 5.24856C10.4304 4.78494 10.2473 4.3403 9.92125 4.01247C9.59523 3.68464 9.15306 3.50047 8.69201 3.50047ZM3.77233 3.50047C4.13149 2.4769 4.79754 1.59056 5.67866 0.963618C6.55979 0.336675 7.61261 0 8.69201 0C9.77141 0 10.8242 0.336675 11.7054 0.963618C12.5865 1.59056 13.2525 2.4769 13.6117 3.50047H26.076C26.5371 3.50047 26.9793 3.68464 27.3053 4.01247C27.6313 4.3403 27.8144 4.78494 27.8144 5.24856C27.8144 5.71218 27.6313 6.15682 27.3053 6.48465C26.9793 6.81248 26.5371 6.99665 26.076 6.99665H13.6117C13.2525 8.02022 12.5865 8.90656 11.7054 9.5335C10.8242 10.1604 9.77141 10.4971 8.69201 10.4971C7.61261 10.4971 6.55979 10.1604 5.67866 9.5335C4.79754 8.90656 4.13149 8.02022 3.77233 6.99665H1.7384C1.27735 6.99665 0.83518 6.81248 0.509166 6.48465C0.183153 6.15682 0 5.71218 0 5.24856C0 4.78494 0.183153 4.3403 0.509166 4.01247C0.83518 3.68464 1.27735 3.50047 1.7384 3.50047H3.77233ZM19.1224 13.989C18.6614 13.989 18.2192 14.1732 17.8932 14.501C17.5672 14.8289 17.384 15.2735 17.384 15.7371C17.384 16.2007 17.5672 16.6454 17.8932 16.9732C18.2192 17.301 18.6614 17.4852 19.1224 17.4852C19.5835 17.4852 20.0256 17.301 20.3517 16.9732C20.6777 16.6454 20.8608 16.2007 20.8608 15.7371C20.8608 15.2735 20.6777 14.8289 20.3517 14.501C20.0256 14.1732 19.5835 13.989 19.1224 13.989ZM14.2027 13.989C14.5619 12.9655 15.2279 12.0791 16.1091 11.4522C16.9902 10.8252 18.043 10.4886 19.1224 10.4886C20.2018 10.4886 21.2546 10.8252 22.1358 11.4522C23.0169 12.0791 23.6829 12.9655 24.0421 13.989H26.076C26.5371 13.989 26.9793 14.1732 27.3053 14.501C27.6313 14.8289 27.8144 15.2735 27.8144 15.7371C27.8144 16.2007 27.6313 16.6454 27.3053 16.9732C26.9793 17.301 26.5371 17.4852 26.076 17.4852H24.0421C23.6829 18.5088 23.0169 19.3951 22.1358 20.0221C21.2546 20.649 20.2018 20.9857 19.1224 20.9857C18.043 20.9857 16.9902 20.649 16.1091 20.0221C15.2279 19.3951 14.5619 18.5088 14.2027 17.4852H1.7384C1.27735 17.4852 0.83518 17.301 0.509166 16.9732C0.183153 16.6454 0 16.2007 0 15.7371C0 15.2735 0.183153 14.8289 0.509166 14.501C0.83518 14.1732 1.27735 13.989 1.7384 13.989H14.2027ZM8.69201 24.4776C8.23096 24.4776 7.78879 24.6617 7.46277 24.9896C7.13676 25.3174 6.95361 25.762 6.95361 26.2257C6.95361 26.6893 7.13676 27.1339 7.46277 27.4618C7.78879 27.7896 8.23096 27.9738 8.69201 27.9738C9.15306 27.9738 9.59523 27.7896 9.92125 27.4618C10.2473 27.1339 10.4304 26.6893 10.4304 26.2257C10.4304 25.762 10.2473 25.3174 9.92125 24.9896C9.59523 24.6617 9.15306 24.4776 8.69201 24.4776ZM3.77233 24.4776C4.13149 23.454 4.79754 22.5677 5.67866 21.9407C6.55979 21.3138 7.61261 20.9771 8.69201 20.9771C9.77141 20.9771 10.8242 21.3138 11.7054 21.9407C12.5865 22.5677 13.2525 23.454 13.6117 24.4776H26.076C26.5371 24.4776 26.9793 24.6617 27.3053 24.9896C27.6313 25.3174 27.8144 25.762 27.8144 26.2257C27.8144 26.6893 27.6313 27.1339 27.3053 27.4618C26.9793 27.7896 26.5371 27.9738 26.076 27.9738H13.6117C13.2525 28.9973 12.5865 29.8837 11.7054 30.5106C10.8242 31.1375 9.77141 31.4742 8.69201 31.4742C7.61261 31.4742 6.55979 31.1375 5.67866 30.5106C4.79754 29.8837 4.13149 28.9973 3.77233 27.9738H1.7384C1.27735 27.9738 0.83518 27.7896 0.509166 27.4618C0.183153 27.1339 0 26.6893 0 26.2257C0 25.762 0.183153 25.3174 0.509166 24.9896C0.83518 24.6617 1.27735 24.4776 1.7384 24.4776H3.77233Z" fill="#050F2A"/>
</svg>
